<?xml version="1.0" standalone="no"?>
<!DOCTYPE svg PUBLIC "-//W3C//DTD SVG 20010904//EN"
 "http://www.w3.org/TR/2001/REC-SVG-20010904/DTD/svg10.dtd">
<svg version="1.0" xmlns="http://www.w3.org/2000/svg"
 width="1920.000000pt" height="1893.000000pt" viewBox="0 0 1920.000000 1893.000000"
 preserveAspectRatio="xMidYMid meet">

<g transform="translate(0.000000,1893.000000) scale(0.100000,-0.100000)"
fill="#000000" stroke="none">
<path d="M9360 18919 c-30 -5 -93 -27 -138 -50 -385 -189 -384 -716 1 -911
109 -55 227 -69 351 -43 142 30 270 117 346 234 125 195 88 467 -84 629 -130
121 -294 170 -476 141z m230 -54 c216 -57 356 -238 353 -455 -2 -255 -203
-452 -470 -462 -29 -1 -55 1 -58 4 -4 3 -9 214 -12 467 l-6 461 69 0 c38 0 94
-7 124 -15z"/>
<path d="M10306 18653 c-15 -125 -43 -340 -62 -477 -19 -137 -33 -250 -31
-252 6 -6 824 -104 868 -104 32 0 39 3 39 20 0 25 -1 25 -240 50 -107 12 -201
23 -208 25 -8 3 -11 17 -7 42 3 21 19 151 36 288 16 138 41 324 55 414 13 90
23 165 22 166 -2 1 -84 12 -183 24 -99 12 -198 24 -221 27 l-40 6 -28 -229z"/>
<path d="M8544 18857 c-2 -7 11 -109 31 -227 19 -117 35 -219 35 -226 0 -10
-37 0 -122 30 -195 70 -576 214 -807 305 l-53 22 5 -23 c13 -52 81 -461 117
-707 24 -162 44 -267 51 -272 22 -13 51 10 45 34 -3 12 -19 103 -36 202 -17
99 -33 192 -36 207 l-6 28 129 -44 c209 -72 415 -148 636 -236 115 -45 210
-80 212 -78 3 2 -11 92 -30 199 -19 107 -53 320 -75 474 -22 154 -42 290 -45
303 -6 24 -42 31 -51 9z"/>
<path d="M11741 18624 c-177 -47 -331 -203 -370 -374 -15 -63 -13 -186 3 -246
47 -176 195 -323 371 -369 69 -18 192 -20 267 -4 144 30 293 148 356 280 138
291 -26 631 -344 714 -72 19 -211 18 -283 -1z m304 -54 c245 -84 379 -335 305
-571 -25 -82 -54 -128 -119 -194 -85 -86 -221 -144 -335 -145 -46 0 -157 18
-174 29 -13 8 37 208 158 636 34 121 65 230 67 243 6 27 23 28 98 2z"/>
<path d="M6881 18555 c-71 -20 -161 -69 -216 -117 -183 -161 -220 -453 -84
-657 184 -275 584 -312 825 -76 91 90 174 275 134 300 -18 11 -36 -13 -55 -75
-48 -152 -160 -266 -307 -311 -34 -11 -65 -16 -69 -12 -8 9 -122 370 -210 667
-72 241 -74 227 43 246 120 21 250 -6 343 -70 47 -33 79 -34 73 -3 -4 23 -76
70 -146 95 -76 28 -253 34 -331 13z"/>
<path d="M5685 18099 c-203 -88 -374 -164 -378 -169 -5 -4 45 -120 110 -256
66 -137 157 -333 203 -436 46 -104 87 -188 91 -188 6 0 721 307 792 340 32 16
37 50 6 50 -11 0 -107 -38 -214 -85 -106 -47 -195 -85 -197 -85 -12 0 -259
543 -251 551 5 5 85 41 177 79 93 39 177 75 187 81 25 13 25 49 1 49 -10 0
-99 -36 -197 -80 -98 -44 -184 -80 -190 -80 -11 0 -101 188 -93 194 2 2 83 36
181 76 134 55 177 77 177 90 0 14 -22 33 -33 29 -1 0 -168 -72 -372 -160z"/>
<path d="M12990 18224 c-148 -32 -293 -142 -353 -267 -161 -335 58 -709 435
-743 146 -13 297 40 405 140 63 59 132 161 117 176 -15 14 -424 180 -445 180
-12 0 -19 -7 -19 -19 0 -15 40 -35 200 -101 116 -48 200 -89 200 -96 0 -7 -27
-43 -61 -78 -104 -112 -237 -163 -394 -153 -86 5 -195 40 -195 62 0 14 115
284 271 632 65 148 99 213 110 213 9 0 43 -14 76 -30 104 -52 201 -172 232
-287 11 -39 33 -59 52 -47 19 11 7 65 -31 142 -109 217 -354 330 -600 276z"/>
<path d="M14024 17718 c-78 -139 -414 -710 -427 -726 -13 -16 -21 -11 158
-109 77 -42 159 -87 181 -100 l42 -23 152 262 c84 145 196 334 247 421 52 87
93 160 91 162 -1 1 -66 38 -143 80 -77 42 -163 90 -191 106 l-52 29 -58 -102z"/>
<path d="M4590 17539 c-223 -132 -411 -246 -419 -254 -16 -16 -8 -45 12 -45 8
0 65 32 127 71 61 38 113 69 114 67 27 -38 302 -470 382 -600 79 -129 113
-176 124 -172 8 3 95 53 192 111 113 67 175 109 171 117 -4 6 -50 79 -103 161
-53 83 -139 220 -192 305 -53 85 -116 189 -142 230 -25 40 -43 77 -38 81 4 4
54 34 112 67 75 43 106 66 108 81 3 16 -2 21 -20 21 -13 -1 -205 -109 -428
-241z"/>
<path d="M14825 17274 c-11 -2 -45 -9 -75 -15 -138 -28 -279 -139 -345 -272
-192 -389 160 -815 596 -723 109 23 177 68 139 91 -6 3 -41 -6 -78 -21 -90
-36 -224 -44 -318 -19 -75 20 -189 89 -181 109 13 34 545 746 558 746 4 0 32
-19 61 -43 105 -86 164 -191 176 -317 6 -57 10 -65 30 -68 20 -3 22 0 22 51 0
198 -177 412 -385 466 -48 12 -172 22 -200 15z"/>
<path d="M8890 17015 c-8 -2 -49 -9 -90 -15 -93 -15 -215 -52 -300 -92 l-65
-30 -710 -908 c-390 -500 -712 -916 -713 -925 -3 -11 1 -15 10 -12 90 37 299
80 467 97 126 12 272 13 251 1 -8 -5 -174 -60 -367 -122 -217 -70 -353 -119
-353 -126 0 -17 -4 -18 119 18 154 45 299 70 441 75 l125 4 -342 -116 c-250
-84 -343 -120 -343 -131 0 -10 6 -13 18 -8 43 17 227 56 327 69 140 19 315 29
315 19 0 -4 -147 -59 -326 -122 -178 -63 -327 -118 -330 -123 -12 -19 7 -18
92 6 165 47 307 68 504 73 204 6 306 -3 453 -42 204 -53 357 -138 506 -280
l96 -93 90 60 c107 70 360 196 465 231 392 131 754 119 1083 -38 88 -41 210
-120 267 -171 35 -32 43 -35 55 -23 10 11 1284 1959 1319 2017 4 7 -36 -3 -91
-23 -54 -19 -99 -35 -101 -35 -2 0 11 20 28 45 17 25 29 45 27 45 -3 0 -24 -7
-47 -15 -24 -8 -44 -14 -46 -12 -1 1 15 30 37 65 22 34 35 62 30 62 -4 0 -27
-7 -50 -15 -22 -8 -41 -12 -41 -10 0 3 16 29 35 59 l35 55 -48 42 c-65 58
-210 153 -316 206 -305 154 -663 186 -978 87 -99 -31 -258 -106 -346 -163
l-63 -41 -57 43 c-206 159 -434 262 -666 302 -77 13 -354 20 -406 10z m369
-31 c238 -35 514 -158 703 -315 26 -21 48 -39 50 -39 3 0 52 29 110 64 363
217 726 260 1104 130 153 -52 359 -168 464 -262 l45 -40 -51 -73 c-29 -41
-273 -418 -542 -839 -270 -421 -497 -773 -504 -783 -12 -16 -19 -12 -93 43
-152 114 -362 201 -564 235 -138 23 -413 16 -549 -14 -212 -47 -445 -145 -645
-271 l-98 -61 -77 72 c-165 154 -329 241 -562 296 -87 21 -139 26 -305 30
-221 6 -373 -8 -565 -51 -58 -13 -107 -22 -108 -21 -2 2 309 403 692 892 l697
888 80 33 c223 91 479 121 718 86z m2471 -599 c0 -3 -221 -343 -492 -757 -270
-414 -524 -803 -565 -865 l-73 -112 -82 60 c-96 69 -269 157 -381 193 -425
137 -913 52 -1382 -243 l-98 -61 -77 73 c-178 171 -399 275 -675 318 -45 7
-164 13 -270 13 l-190 0 195 63 195 64 83 -11 c277 -37 483 -133 657 -305
l101 -100 85 57 c228 153 504 265 759 310 108 19 355 16 463 -5 225 -45 440
-146 609 -287 l37 -31 30 48 c17 26 248 388 513 803 321 501 492 759 508 767
25 13 50 17 50 8z m14 -107 c-13 -23 -1157 -1783 -1164 -1791 -4 -5 -35 13
-68 40 -129 104 -327 196 -516 241 -99 23 -131 26 -301 27 -162 0 -206 -4
-299 -23 -213 -46 -450 -145 -658 -275 l-105 -66 -76 73 c-170 163 -370 262
-632 312 -96 19 -386 25 -520 12 -65 -7 -54 -2 162 72 l232 78 70 -9 c288 -36
532 -152 719 -342 l64 -64 71 47 c230 151 458 249 708 305 117 26 375 31 500
10 230 -38 445 -133 613 -270 46 -37 61 -44 67 -34 5 8 249 381 542 829 337
515 542 820 558 827 31 16 42 16 33 1z m139 -30 c-17 -29 -1254 -1923 -1257
-1926 -2 -2 -33 19 -70 47 -129 98 -273 170 -428 215 -150 43 -205 50 -393 50
-148 0 -199 -4 -285 -23 -222 -47 -452 -143 -664 -276 l-107 -67 -82 79 c-171
163 -371 262 -628 309 -113 21 -431 24 -553 6 -44 -7 -80 -11 -82 -9 -2 1 98
38 221 81 l223 78 98 -16 c138 -21 263 -59 373 -112 121 -58 207 -118 302
-215 l76 -77 99 65 c55 36 162 96 239 133 223 109 391 158 616 180 319 32 673
-73 922 -272 39 -32 74 -58 77 -57 3 0 264 398 580 885 l575 884 50 19 c28 10
57 21 65 24 27 10 42 8 33 -5z"/>
<path d="M8700 16830 c-120 -16 -240 -42 -240 -52 0 -6 11 -7 28 -3 135 34
403 60 532 51 269 -19 470 -79 632 -189 73 -49 105 -49 35 0 -111 78 -260 141
-412 173 -79 17 -142 23 -305 25 -113 2 -234 0 -270 -5z"/>
<path d="M10550 16729 c-164 -10 -350 -42 -350 -60 0 -5 10 -7 23 -4 310 72
632 71 887 -2 90 -26 201 -76 279 -127 40 -26 76 -45 79 -42 7 8 9 6 -74 59
-215 139 -498 198 -844 176z"/>
<path d="M8680 16664 c-162 -15 -353 -50 -345 -64 3 -4 31 -1 62 6 211 49 551
56 738 16 157 -34 294 -90 405 -164 70 -47 93 -45 28 2 -113 83 -296 155 -468
184 -94 16 -336 28 -420 20z"/>
<path d="M9301 15738 c-320 -473 -579 -863 -576 -866 3 -3 7 -3 9 -1 16 20
1148 1702 1152 1713 3 9 4 16 1 16 -3 0 -267 -388 -586 -862z"/>
<path d="M10356 16549 c-104 -11 -247 -38 -266 -50 -18 -12 11 -9 140 16 113
22 428 31 543 16 193 -26 398 -100 519 -187 28 -19 53 -33 56 -29 22 21 -227
152 -362 190 -173 49 -420 66 -630 44z"/>
<path d="M8511 16480 c-121 -14 -260 -41 -268 -52 -4 -8 5 -9 28 -4 346 73
658 66 917 -21 93 -31 178 -72 254 -124 31 -21 59 -35 62 -31 6 10 -95 77
-169 115 -78 39 -186 75 -293 97 -110 24 -404 35 -531 20z"/>
<path d="M10230 16369 c-122 -15 -250 -41 -250 -50 0 -11 -13 -12 107 11 424
82 833 23 1102 -159 69 -47 84 -40 19 9 -113 83 -310 156 -501 184 -112 17
-364 20 -477 5z"/>
<path d="M8340 16309 c-123 -15 -250 -41 -257 -51 -4 -8 5 -9 28 -4 481 101
893 50 1182 -146 66 -45 78 -34 15 13 -115 83 -312 155 -501 183 -111 17 -354
19 -467 5z"/>
<path d="M10060 16199 c-75 -9 -223 -39 -229 -45 -13 -13 15 -11 99 6 52 11
160 25 239 32 325 27 668 -48 863 -187 27 -20 55 -34 61 -32 16 5 -118 91
-196 127 -97 44 -215 77 -329 94 -114 17 -394 20 -508 5z"/>
<path d="M8305 16139 c-166 -11 -345 -43 -345 -61 0 -5 8 -7 18 -4 123 36 369
60 537 53 257 -11 463 -70 634 -181 40 -26 76 -45 79 -41 15 15 -158 116 -267
156 -123 44 -240 67 -398 79 -76 5 -140 9 -143 8 -3 0 -54 -4 -115 -9z"/>
<path d="M10040 16033 c-72 -5 -252 -32 -292 -44 -61 -16 -44 -28 20 -13 171
41 472 56 638 33 187 -26 365 -88 493 -173 38 -25 71 -46 75 -46 38 0 -126
106 -234 150 -186 77 -449 112 -700 93z"/>
<path d="M8145 15960 c-111 -13 -257 -40 -275 -52 -17 -11 22 -6 145 17 130
25 428 31 564 11 185 -28 368 -95 501 -185 24 -17 46 -28 49 -25 10 9 -53 52
-149 102 -108 57 -222 95 -348 118 -105 18 -377 26 -487 14z"/>
<path d="M9865 15849 c-108 -12 -245 -40 -252 -52 -4 -7 6 -8 28 -3 478 100
907 46 1181 -150 26 -18 50 -30 52 -25 7 11 -80 69 -170 114 -120 60 -243 95
-407 117 -89 11 -328 11 -432 -1z"/>
<path d="M7940 15795 c-129 -19 -200 -35 -200 -46 0 -6 8 -8 18 -5 58 18 277
48 392 53 299 13 582 -53 779 -181 41 -26 76 -45 79 -42 6 7 9 5 -48 43 -128
86 -296 149 -475 178 -110 18 -423 18 -545 0z"/>
<path d="M9835 15704 c-185 -18 -359 -49 -350 -63 2 -4 42 0 87 10 138 30 300
42 468 36 267 -11 471 -71 657 -194 65 -44 82 -37 21 7 -113 83 -295 154 -468
184 -93 16 -336 28 -415 20z"/>
<path d="M7950 15634 c-80 -8 -254 -34 -292 -45 -61 -16 -44 -28 20 -13 185
44 480 56 670 28 179 -26 349 -90 481 -178 57 -39 61 -41 61 -27 0 13 -117 86
-200 125 -158 72 -321 105 -545 111 -82 1 -170 1 -195 -1z"/>
<path d="M9625 15520 c-118 -15 -255 -41 -261 -51 -7 -12 -4 -12 112 11 421
81 826 22 1096 -161 31 -22 59 -35 62 -31 6 10 -94 77 -169 115 -78 38 -186
75 -293 97 -110 24 -424 35 -547 20z"/>
<path d="M7775 15450 c-113 -14 -245 -42 -252 -53 -4 -7 5 -8 28 -3 100 22
199 36 315 46 329 29 672 -50 878 -201 39 -29 63 -31 35 -4 -32 32 -185 115
-264 144 -152 55 -259 72 -475 76 -107 2 -226 0 -265 -5z"/>
<path d="M9495 15339 c-121 -17 -235 -42 -235 -51 0 -6 10 -8 23 -4 12 3 74
16 137 28 157 29 471 31 605 5 179 -36 326 -92 435 -166 34 -23 67 -40 73 -38
12 4 -98 79 -168 115 -79 39 -222 84 -333 103 -122 20 -416 25 -537 8z"/>
<path d="M3232 16469 c-60 -12 -147 -53 -207 -98 -53 -41 -388 -347 -393 -359
-1 -4 153 -164 342 -356 l344 -349 184 170 c101 94 195 184 209 199 94 103
144 268 120 399 -48 266 -325 448 -599 394z m200 -50 c86 -18 158 -58 224
-123 69 -69 109 -144 126 -234 22 -120 -24 -256 -124 -366 l-54 -59 -311 318
-311 318 46 39 c118 99 262 137 404 107z"/>
<path d="M16000 16324 c-107 -30 -352 -97 -545 -148 -396 -107 -405 -110 -405
-131 0 -27 29 -28 106 -5 l75 22 82 -75 c45 -41 126 -117 180 -168 l98 -94
-21 -65 -21 -65 98 -93 c226 -215 271 -254 277 -235 25 86 296 1094 296 1103
0 15 -6 13 -220 -46z m-331 -330 c-28 -99 -54 -184 -58 -191 -7 -14 -305 256
-300 272 4 16 403 123 407 109 2 -6 -20 -92 -49 -190z"/>
<path d="M2013 15379 c3 -8 94 -234 202 -504 238 -595 233 -585 257 -585 32 0
32 29 -2 101 l-32 70 153 189 c84 105 158 190 163 190 6 -1 40 -7 76 -15 36
-7 65 -13 66 -12 0 1 69 87 154 191 93 115 148 191 141 195 -6 4 -266 46 -578
95 -313 48 -577 90 -587 93 -14 4 -17 1 -13 -8z m456 -490 c97 -16 184 -33
194 -37 16 -6 -1 -31 -107 -162 -70 -85 -130 -156 -135 -158 -5 -2 -22 30 -39
70 -94 229 -122 298 -122 308 0 15 15 13 209 -21z"/>
<path d="M17084 15052 c-98 -65 -284 -185 -412 -266 l-232 -149 16 -26 c102
-157 289 -417 331 -457 244 -236 648 -165 798 140 35 71 40 88 43 172 5 108
-6 163 -50 249 -31 62 -298 455 -308 455 -4 0 -87 -53 -186 -118z m448 -352
c67 -134 69 -260 6 -390 -83 -170 -287 -275 -474 -243 -101 17 -168 55 -256
144 -43 43 -78 82 -78 86 0 17 729 484 749 480 8 -1 32 -36 53 -77z"/>
<path d="M1645 14488 c-87 -10 -192 -60 -256 -121 -57 -55 -97 -113 -237 -349
l-111 -188 42 -24 c23 -13 141 -78 262 -144 121 -66 296 -163 389 -215 94 -53
173 -94 177 -91 12 7 250 413 275 469 76 173 40 377 -91 514 -114 119 -270
171 -450 149z m190 -53 c91 -24 144 -54 211 -120 101 -100 149 -233 127 -352
-14 -71 -48 -165 -71 -193 -17 -21 -17 -21 -217 88 -268 147 -558 311 -569
322 -14 14 78 134 133 174 115 85 257 114 386 81z"/>
<path d="M17790 13974 c-107 -53 -303 -145 -435 -206 -132 -60 -244 -113 -248
-118 -5 -4 80 -184 188 -399 158 -316 199 -391 215 -391 19 0 24 10 21 36 -1
7 -44 93 -96 193 -52 100 -95 184 -95 187 0 3 60 34 133 68 72 35 198 95 280
134 l147 71 95 -190 c92 -183 116 -214 132 -173 4 10 -29 85 -85 194 -51 97
-92 180 -92 184 0 6 115 62 177 87 21 8 27 -2 104 -161 63 -130 87 -170 101
-170 10 0 21 6 24 14 6 15 -351 736 -364 735 -4 0 -95 -43 -202 -95z"/>
<path d="M3307 13553 c-4 -3 -7 -314 -7 -690 l0 -683 950 0 950 0 0 690 0 690
-943 0 c-519 0 -947 -3 -950 -7z"/>
<path d="M5397 13553 c-4 -3 -7 -314 -7 -690 l0 -683 170 0 170 0 0 -796 c0
-757 -1 -796 -17 -783 -10 7 -47 39 -83 70 l-66 57 -62 -56 -62 -57 95 -170
c52 -93 93 -170 92 -171 -1 -1 -70 7 -153 19 l-151 21 -130 -45 -130 -45 -167
160 -168 161 36 100 c20 55 36 102 36 104 0 3 -126 -3 -282 -16 l-78 -6 0 209
0 209 -152 91 -153 91 -179 -11 -179 -12 -211 92 -211 91 -3 -127 -3 -126 -68
-22 -68 -22 -6 -83 c-4 -45 -10 -190 -13 -323 l-7 -241 244 -133 c134 -73 256
-140 271 -149 l27 -17 -189 -149 c-135 -105 -189 -153 -185 -164 23 -74 113
-487 108 -495 -4 -6 -47 -59 -95 -117 -86 -105 -91 -108 -243 -199 -85 -51
-153 -95 -151 -99 10 -17 280 -459 292 -479 l14 -22 70 35 c39 19 70 37 70 40
0 7 -61 289 -65 303 -3 7 41 35 115 72 l120 60 533 0 533 0 107 -115 c58 -63
108 -111 111 -107 2 4 14 40 25 80 l22 72 27 -14 c193 -99 689 -332 727 -341
l50 -11 6 -585 c5 -487 9 -601 23 -689 74 -450 211 -819 419 -1130 235 -351
543 -618 942 -815 343 -169 689 -265 1160 -322 218 -26 875 -26 1090 0 687 84
1207 282 1625 618 123 99 316 298 406 419 282 377 460 841 518 1350 14 115 16
318 16 1346 l0 1211 141 32 c78 17 143 31 144 29 1 -2 8 -68 14 -148 6 -80 14
-169 17 -197 l6 -53 -41 0 -41 0 0 -625 0 -625 234 0 234 0 87 -198 87 -198
470 -454 c259 -250 473 -456 477 -457 3 -2 70 101 149 227 l142 229 0 178 1
178 102 -108 c56 -59 106 -107 110 -107 7 0 587 428 609 449 3 3 -4 62 -17
130 l-23 125 60 68 c34 37 67 68 74 68 7 0 64 20 126 44 533 206 927 552 1172
1029 177 346 271 735 296 1223 32 649 -91 1200 -367 1646 -110 178 -324 414
-488 539 -290 222 -653 386 -1045 472 -280 63 -239 61 -1287 64 l-963 4 0
-690 0 -691 938 0 c570 0 972 -4 1027 -10 425 -49 730 -295 843 -685 48 -162
57 -239 57 -480 0 -199 -3 -245 -23 -342 -85 -420 -296 -711 -643 -884 -44
-23 -82 -39 -83 -37 -2 1 -265 317 -585 701 l-582 697 -271 0 -270 0 -241 151
-241 151 -180 -32 c-100 -18 -191 -34 -203 -37 l-23 -5 0 406 0 406 130 0 130
0 0 690 0 690 -925 0 -925 0 0 -690 0 -690 140 0 140 0 0 -300 c0 -185 -4
-300 -10 -300 -5 0 -116 25 -246 55 -131 30 -244 55 -251 55 -8 0 -35 -46 -62
-102 l-48 -103 -239 -109 c-132 -60 -242 -112 -247 -116 -4 -3 9 -46 29 -93
l37 -87 46 1 c25 0 80 4 121 8 41 4 77 6 79 4 3 -2 -38 -43 -89 -91 l-94 -88
61 -47 61 -47 141 12 c78 6 143 9 145 7 2 -2 49 -93 105 -201 57 -109 106
-199 109 -201 4 -2 84 24 177 59 l170 62 3 -1476 c3 -1644 6 -1553 -65 -1777
-65 -203 -167 -386 -297 -535 -166 -190 -411 -347 -681 -435 -414 -136 -979
-151 -1430 -38 -559 139 -947 502 -1100 1029 -48 166 -55 242 -55 617 l0 347
115 0 c63 0 115 -4 115 -8 0 -5 -20 -77 -45 -161 l-44 -153 201 -299 202 -298
-36 -206 -35 -205 36 0 c71 1 1031 67 1035 71 2 2 45 79 96 172 72 130 97 167
112 167 11 0 108 -5 214 -11 l193 -11 120 103 c73 63 117 108 112 114 -5 5
-163 219 -351 475 -188 256 -346 469 -350 473 -4 5 -76 14 -160 20 l-151 10
-38 76 c-21 42 -53 109 -71 149 l-33 73 79 80 79 79 214 0 215 0 165 107 c91
59 174 113 184 122 10 8 53 85 97 171 l79 157 123 7 c68 4 149 9 180 12 l57 6
59 103 59 102 7 129 c4 71 9 154 12 184 l6 56 154 44 c139 41 154 47 150 65
-2 11 -8 45 -11 76 -4 31 -10 60 -13 65 -4 6 -85 70 -180 143 l-173 133 -84
-21 c-46 -11 -89 -21 -94 -21 -5 0 -20 29 -33 65 -12 36 -26 65 -30 65 -3 0
-75 -43 -160 -95 -84 -52 -157 -95 -163 -96 -5 0 -20 39 -33 86 l-23 86 32 37
c18 20 77 88 132 150 l99 112 -33 55 c-18 30 -37 55 -42 55 -5 0 -156 -92
-336 -204 l-328 -204 -354 -103 -354 -103 -345 -218 -345 -218 -105 0 c-58 0
-122 3 -142 6 l-38 7 0 1028 0 1029 130 0 130 0 0 690 0 690 -923 0 c-508 0
-927 -3 -930 -7z"/>
<path d="M7440 12870 l0 -690 1075 0 1075 0 -2 688 -3 687 -1072 3 -1073 2 0
-690z"/>
<path d="M806 13318 c-47 -106 -86 -196 -86 -199 0 -4 37 -22 83 -40 45 -18
250 -104 456 -191 206 -87 375 -157 376 -156 2 2 42 90 89 196 79 178 90 212
66 212 -10 0 -627 257 -779 324 -57 25 -107 46 -111 46 -4 0 -46 -87 -94 -192z"/>
<path d="M633 12725 c-85 -36 -184 -198 -204 -333 -20 -133 12 -245 91 -316
77 -70 159 -87 283 -61 80 16 145 42 351 139 175 81 246 85 246 13 0 -81 -84
-192 -193 -258 -60 -35 -71 -61 -29 -67 30 -5 108 46 166 108 89 96 143 257
133 399 -8 119 -53 199 -137 245 -49 27 -58 28 -143 24 -109 -6 -166 -25 -382
-126 -215 -100 -271 -113 -301 -67 -34 53 17 155 118 233 74 58 75 99 1 67z"/>
<path d="M18560 12275 c-96 -24 -305 -74 -465 -110 -159 -36 -295 -68 -302
-70 -8 -3 4 -65 42 -210 29 -114 55 -208 57 -210 2 -2 39 5 81 16 43 11 82 17
87 14 6 -4 10 -21 10 -38 0 -49 27 -145 57 -200 38 -69 130 -150 200 -177 118
-46 264 -35 369 26 56 33 126 110 160 175 23 44 28 71 32 146 2 50 -1 122 -7
160 -23 136 -123 523 -134 522 -7 0 -91 -20 -187 -44z m276 -505 c18 -107 13
-171 -20 -245 -101 -224 -393 -286 -572 -122 -37 33 -67 73 -85 110 -31 66
-57 193 -42 208 5 5 162 45 349 88 256 59 341 75 346 66 4 -7 15 -54 24 -105z"/>
<path d="M542 11719 c-61 -10 -157 -56 -206 -99 -68 -60 -117 -159 -152 -310
-20 -84 -94 -473 -91 -476 1 -1 83 -17 182 -34 99 -17 313 -56 476 -86 163
-30 302 -54 310 -54 11 0 24 51 53 206 21 113 34 209 30 214 -5 4 -45 13 -89
19 -44 7 -88 14 -97 17 -13 4 7 29 81 104 166 166 268 350 196 350 -8 0 -32
-35 -55 -77 -42 -82 -135 -213 -151 -213 -4 0 -6 13 -3 29 3 15 0 55 -6 87
-35 168 -167 297 -330 323 -73 12 -74 12 -148 0z m228 -75 c127 -57 203 -181
204 -330 0 -93 -10 -115 -70 -156 l-39 -27 -220 39 c-231 41 -416 78 -422 84
-6 6 46 175 69 224 80 170 300 246 478 166z"/>
<path d="M18040 11002 c0 -12 23 -28 78 -53 l77 -35 24 -238 c19 -198 21 -240
9 -248 -7 -4 -34 -21 -60 -36 -41 -23 -48 -32 -48 -57 0 -36 41 -459 45 -463
1 -2 226 145 500 326 273 181 493 332 489 335 -5 3 -162 75 -349 160 -187 85
-423 194 -525 241 -187 87 -240 102 -240 68z m423 -207 c108 -49 194 -92 190
-96 -11 -10 -357 -228 -359 -226 -1 1 -9 74 -18 162 -9 88 -19 182 -22 209 -3
27 -2 46 2 44 5 -3 98 -45 207 -93z"/>
<path d="M326 10458 c-3 -18 -7 -110 -8 -205 -2 -94 -7 -175 -10 -179 -4 -3
-55 -3 -114 1 l-106 7 8 157 c11 240 12 226 -13 229 -17 2 -24 -3 -27 -20 -5
-24 -36 -669 -36 -749 l0 -47 148 -6 c81 -3 304 -13 495 -22 192 -8 350 -14
351 -12 4 4 37 741 36 816 0 55 -2 62 -19 62 -11 0 -22 -3 -24 -7 -3 -5 -8
-104 -12 -221 -4 -117 -11 -214 -15 -217 -8 -5 -567 14 -599 21 l-24 5 9 162
c13 251 13 251 -13 255 -18 3 -23 -3 -27 -30z"/>
<path d="M18152 9703 l3 -28 234 -8 c129 -4 237 -9 239 -12 9 -8 -356 -572
-508 -786 l-48 -67 201 -6 c185 -6 340 -14 702 -35 72 -4 136 -6 143 -3 18 6
15 40 -5 46 -10 3 -112 8 -227 12 -116 4 -220 10 -232 13 -21 6 0 40 257 425
169 254 275 422 268 426 -5 4 -119 10 -252 14 -133 4 -341 14 -462 21 -121 8
-242 15 -268 15 -47 0 -48 -1 -45 -27z"/>
<path d="M4 9355 c-12 -29 6 -43 103 -80 204 -80 498 -198 505 -204 5 -4 -112
-88 -258 -186 -147 -99 -269 -185 -271 -193 -5 -10 35 -484 41 -488 0 -1 229
154 507 345 l507 346 -72 33 c-39 19 -260 114 -491 212 -231 98 -445 190 -475
204 -63 30 -88 32 -96 11z"/>
<path d="M18097 8653 c-18 -18 -2 -46 53 -89 33 -26 60 -52 60 -59 0 -6 -20
-112 -45 -235 -25 -123 -45 -224 -45 -225 0 -1 -33 -12 -73 -24 l-72 -21 -48
-237 c-25 -130 -45 -238 -43 -241 4 -3 1121 345 1138 355 4 2 -106 101 -245
220 -138 119 -332 286 -431 372 -211 184 -233 201 -249 184z m343 -332 c80
-68 146 -127 148 -132 2 -4 -23 -16 -55 -25 -32 -9 -123 -36 -203 -60 -80 -23
-146 -41 -147 -40 -2 1 15 92 37 201 22 109 40 201 40 203 0 6 8 -1 180 -147z"/>
<path d="M1100 8141 c-14 -4 -224 -48 -467 -96 -245 -49 -443 -94 -443 -99 -1
-6 18 -102 42 -214 l43 -203 25 7 c14 3 231 48 483 99 252 51 460 95 464 99 3
3 -13 98 -37 211 -48 223 -43 216 -110 196z"/>
<path d="M1085 7424 c-121 -41 -317 -104 -435 -139 -292 -87 -294 -88 -298
-113 -5 -35 34 -28 263 47 115 38 211 68 213 66 5 -5 -53 -291 -130 -635 -39
-173 -73 -325 -75 -336 -4 -20 13 -15 219 53 122 41 345 111 493 156 243 74
270 84 273 105 2 13 -3 25 -12 28 -8 3 -111 -26 -228 -65 -117 -39 -217 -71
-222 -71 -4 0 -5 21 -1 48 13 90 97 498 146 712 27 118 49 216 49 217 0 10
-61 -8 -255 -73z"/>
<path d="M17850 7420 c-16 -30 2 -54 72 -96 124 -73 337 -219 330 -225 -4 -3
-116 -35 -250 -70 -167 -44 -241 -68 -238 -76 3 -7 73 -102 156 -213 106 -141
145 -200 133 -200 -10 0 -128 9 -262 21 -134 11 -247 17 -251 12 -12 -15 -151
-386 -145 -391 2 -3 136 -13 297 -23 161 -10 398 -25 526 -35 128 -9 235 -14
237 -12 2 2 -86 123 -195 268 -110 145 -196 267 -192 271 4 3 149 41 322 84
173 43 321 81 328 85 15 7 -825 620 -850 620 -4 0 -12 -9 -18 -20z"/>
<path d="M11920 6635 c0 -36 -67 -220 -120 -330 -166 -343 -434 -650 -792
-907 -62 -44 -164 -110 -225 -147 l-113 -66 0 -182 0 -183 630 0 630 0 0 915
c0 503 -2 915 -5 915 -3 0 -5 -7 -5 -15z"/>
<path d="M5730 5713 l0 -893 630 0 630 0 0 183 -1 182 -134 79 c-533 315 -939
775 -1090 1237 l-34 104 -1 -892z"/>
<path d="M4232 6570 c-36 -22 -72 -74 -72 -106 0 -11 -14 -33 -31 -50 -49 -46
-125 -170 -166 -266 -28 -68 -40 -88 -52 -83 -91 35 -184 50 -316 50 -132 0
-143 -1 -190 -27 -94 -49 -125 -105 -125 -221 0 -40 7 -98 16 -128 32 -109
127 -269 234 -398 l50 -60 -49 -58 c-117 -141 -220 -326 -243 -435 -7 -32 -16
-58 -21 -58 -5 0 -25 -8 -44 -17 -92 -43 -98 -180 -10 -233 37 -23 101 -26
136 -6 21 12 30 11 70 -8 67 -31 281 -29 396 4 113 31 115 31 131 -12 22 -63
84 -181 129 -244 123 -172 293 -201 438 -74 52 45 124 157 170 264 21 50 40
92 41 94 2 1 45 -10 97 -24 77 -22 119 -27 239 -30 106 -2 157 -8 191 -21 44
-16 48 -16 93 1 59 23 86 63 86 128 0 34 -6 54 -23 75 -17 20 -26 51 -35 111
-19 138 -102 299 -244 476 l-56 70 48 55 c99 116 195 279 235 401 27 80 25
193 -3 247 -29 56 -86 100 -151 120 -79 23 -266 13 -386 -20 -49 -14 -90 -25
-91 -24 -1 1 -17 39 -37 85 -62 146 -132 247 -210 303 -22 16 -47 43 -56 61
-35 71 -123 98 -189 58z m280 -197 c30 -32 69 -83 86 -114 37 -65 94 -200 88
-207 -3 -2 -55 -26 -116 -52 -61 -27 -141 -65 -177 -85 l-65 -36 -106 54 c-59
30 -138 67 -177 82 -38 16 -73 31 -77 34 -22 18 114 274 175 330 l26 24 26
-32 c35 -41 92 -58 144 -42 40 11 91 61 91 87 0 28 28 13 82 -43z m-689 -316
c48 -13 89 -26 92 -28 2 -3 -4 -32 -14 -65 -25 -83 -50 -212 -64 -334 l-12
-101 -110 -109 -110 -109 -23 22 c-35 33 -118 146 -172 238 -88 145 -123 306
-86 392 19 44 64 84 122 108 69 27 251 21 377 -14z m1415 -2 c61 -33 97 -85
107 -155 17 -122 -92 -353 -263 -556 l-32 -39 -110 110 c-61 61 -112 119 -115
130 -2 11 -10 74 -19 141 -9 66 -28 171 -44 232 l-28 112 56 16 c120 35 177
43 285 41 100 -2 115 -5 163 -32z m-1034 -147 c96 -48 96 -44 -4 -107 -50 -31
-138 -92 -196 -136 -59 -44 -115 -86 -126 -94 -19 -14 -20 -13 -13 45 9 78 50
285 70 351 l15 52 97 -40 c53 -22 124 -54 157 -71z m529 -3 c28 -110 60 -306
55 -329 -2 -10 -28 5 -88 51 -47 36 -139 102 -205 145 -66 44 -121 83 -123 87
-1 4 17 18 40 31 71 40 283 129 290 122 3 -4 17 -52 31 -107z m-305 -126 c87
-55 275 -192 343 -251 26 -22 27 -28 33 -158 3 -74 2 -175 -2 -225 l-7 -90
-85 -68 c-78 -63 -265 -193 -351 -245 l-36 -22 -136 90 c-74 49 -180 125 -236
170 l-101 80 0 219 0 219 38 34 c93 84 411 307 440 308 1 0 46 -28 100 -61z
m-608 -501 l0 -193 -95 95 c-52 52 -95 98 -95 102 0 7 179 188 186 188 2 0 4
-87 4 -192z m1143 74 c31 -33 57 -64 57 -69 0 -5 -42 -50 -93 -101 l-94 -93 0
190 1 190 35 -29 c20 -15 62 -55 94 -88z m-1244 -214 c96 -92 111 -110 111
-138 0 -58 30 -239 59 -353 16 -62 28 -113 27 -114 -1 -1 -45 -14 -96 -28
-128 -36 -293 -43 -365 -18 -35 13 -49 23 -46 33 3 8 7 40 9 70 4 65 -18 103
-76 127 -32 13 -34 16 -27 51 11 58 61 172 113 255 54 87 163 229 173 225 4
-2 57 -51 118 -110z m1388 50 c133 -167 217 -331 238 -465 l7 -43 -49 0 c-54
0 -102 -24 -129 -65 -12 -18 -15 -40 -12 -80 5 -64 5 -65 -96 -65 -80 0 -142
10 -257 41 l-76 20 28 107 c28 111 59 297 59 357 0 31 12 46 113 144 61 61
115 111 118 111 3 0 28 -28 56 -62z m-942 -403 l127 -84 -109 -54 c-143 -71
-222 -102 -233 -91 -19 20 -90 366 -90 439 0 9 34 -12 89 -55 49 -39 146 -108
216 -155z m625 198 c0 -77 -70 -407 -90 -427 -11 -11 -97 24 -243 96 l-98 49
148 99 c81 54 175 121 208 149 66 55 75 59 75 34z m-342 -361 c64 -32 144 -69
177 -82 33 -13 61 -24 63 -26 7 -5 -61 -162 -96 -219 -178 -295 -403 -267
-567 70 -74 152 -73 149 -28 163 21 6 101 43 178 81 77 38 143 70 148 70 4 1
60 -25 125 -57z"/>
<path d="M4245 5443 c-96 -50 -132 -151 -86 -241 23 -46 46 -67 94 -87 139
-58 281 59 253 210 -8 43 -59 103 -103 121 -43 18 -121 17 -158 -3z"/>
<path d="M13798 6393 l-3 -108 -51 -11 c-29 -6 -68 -14 -87 -18 l-35 -7 -43
100 -43 99 -45 -18 c-196 -77 -236 -94 -240 -96 -2 -2 13 -42 33 -88 20 -47
39 -92 42 -100 4 -9 -18 -29 -67 -61 l-72 -47 -79 79 -78 78 -111 -111 -111
-111 80 -73 80 -72 -43 -64 c-24 -34 -48 -71 -53 -80 -8 -15 -17 -14 -93 16
-46 18 -93 36 -105 40 -19 8 -25 -3 -78 -132 -31 -77 -56 -141 -54 -143 2 -1
47 -19 101 -39 107 -41 103 -36 84 -131 l-13 -60 -112 -3 -112 -3 0 -149 0
-150 113 0 113 0 13 -76 c7 -42 11 -77 9 -79 -2 -2 -46 -20 -98 -41 -52 -20
-96 -38 -98 -39 -2 -2 23 -66 54 -143 l57 -140 51 20 c154 61 158 62 166 47 5
-8 29 -43 53 -78 l45 -64 -80 -75 -79 -75 103 -104 c56 -56 109 -103 116 -103
8 0 47 32 87 70 l72 71 69 -42 c38 -24 71 -44 73 -46 2 -2 -14 -47 -37 -100
-23 -53 -39 -100 -34 -104 14 -13 263 -110 273 -107 6 2 28 43 48 90 20 48 40
90 43 93 3 3 44 -2 92 -11 l86 -17 0 -104 0 -103 155 0 155 0 0 103 0 104 65
11 c36 7 77 15 93 18 27 5 29 3 67 -90 22 -53 44 -96 50 -96 5 0 70 24 143 53
152 60 145 45 89 174 l-36 82 67 43 c37 23 70 43 74 43 4 0 42 -32 85 -71 l79
-71 108 104 108 105 -77 78 -76 77 47 69 c26 38 51 73 55 78 4 5 48 -8 98 -28
50 -20 97 -36 104 -36 11 0 117 241 117 267 0 6 -45 28 -100 49 -87 34 -100
42 -96 59 2 11 10 46 16 78 l11 57 110 0 109 0 0 150 0 150 -109 0 -110 0 -11
58 c-6 31 -14 66 -17 78 -4 19 7 25 96 59 56 21 101 44 101 50 0 7 -18 54 -39
106 -22 52 -46 111 -54 131 l-15 36 -103 -39 c-56 -22 -105 -36 -109 -32 -4 4
-28 39 -54 77 l-47 69 78 79 78 78 -30 28 c-17 16 -67 63 -112 107 l-82 78
-79 -77 -79 -76 -70 46 -70 47 38 93 c22 51 39 96 39 101 0 5 -63 35 -140 65
l-141 56 -23 -51 c-12 -29 -31 -74 -42 -100 -15 -39 -23 -47 -39 -43 -11 3
-53 10 -92 17 l-73 12 0 108 0 109 -155 0 -154 0 -3 -107z m282 -21 l0 -109
111 -21 c61 -12 114 -20 118 -17 4 2 25 45 46 95 30 71 42 90 54 85 9 -3 62
-24 118 -47 l102 -42 -15 -35 c-65 -152 -69 -164 -55 -169 8 -3 49 -28 91 -57
l76 -52 79 73 80 73 88 -87 87 -87 -74 -74 -74 -73 62 -93 c33 -52 67 -94 74
-94 7 -1 54 15 104 34 50 20 92 34 94 33 1 -2 44 -102 90 -214 3 -7 -37 -27
-96 -50 -96 -36 -101 -39 -97 -64 2 -14 10 -58 18 -97 l13 -73 108 0 108 0 0
-125 0 -125 -108 0 -107 0 -14 -77 c-7 -43 -15 -89 -18 -103 -4 -23 2 -27 96
-63 l100 -38 -19 -49 c-24 -61 -71 -174 -74 -177 -2 -2 -51 16 -153 56 l-52
20 -32 -52 c-17 -28 -47 -72 -66 -96 l-34 -45 76 -76 75 -75 -88 -87 -87 -86
-78 73 -78 73 -80 -53 c-44 -30 -85 -55 -91 -57 -11 -4 2 -42 55 -168 l15 -36
-106 -43 c-59 -24 -112 -45 -117 -47 -6 -3 -30 40 -53 94 l-43 98 -92 -19
c-51 -10 -102 -21 -114 -23 -22 -4 -23 -8 -23 -109 l0 -105 -130 0 -129 0 -3
107 -3 107 -70 12 c-38 7 -86 16 -106 19 l-36 7 -37 -88 c-21 -49 -41 -92 -45
-96 -3 -3 -58 15 -122 40 l-116 47 44 99 c24 55 42 100 41 101 -2 1 -28 16
-58 33 -30 17 -70 42 -89 56 l-34 25 -74 -69 c-40 -39 -77 -70 -83 -70 -5 0
-48 37 -96 83 l-87 83 77 68 c42 38 76 72 76 77 0 5 -27 48 -59 95 -33 47 -61
90 -63 95 -2 5 -48 -9 -103 -31 -55 -21 -103 -36 -107 -32 -14 16 -90 214 -83
220 3 4 48 23 98 43 59 23 91 41 91 50 -1 8 -10 53 -19 102 l-18 87 -114 0
-113 0 0 125 0 125 115 0 114 0 7 38 c3 20 12 64 19 97 7 33 13 60 12 60 -44
15 -197 79 -197 83 0 10 82 206 89 214 4 4 47 -8 96 -27 48 -19 94 -35 100
-35 10 0 43 45 130 177 8 12 -6 30 -68 86 l-77 72 90 90 90 90 77 -77 78 -76
92 60 91 61 -35 81 c-20 44 -36 89 -37 99 -1 14 23 28 109 63 60 24 112 41
116 36 4 -4 24 -46 44 -94 21 -49 40 -88 43 -88 4 0 43 7 87 16 44 9 90 18
103 20 21 4 22 8 22 114 l0 110 130 0 130 0 0 -108z"/>
<path d="M13634 5971 c-299 -104 -526 -336 -614 -628 -18 -60 -19 -75 -9 -95
25 -47 27 -47 354 -47 l310 0 28 44 c15 24 50 59 78 76 l49 32 0 304 c0 290
-1 304 -20 323 -28 28 -78 25 -176 -9z m166 -31 c6 -11 10 -125 10 -293 l0
-274 -48 -31 c-27 -17 -61 -50 -77 -72 l-28 -40 -297 0 c-282 0 -298 1 -315
20 -16 18 -16 22 5 92 90 295 333 529 645 618 64 19 87 14 105 -20z"/>
<path d="M14101 5974 c-20 -26 -21 -38 -20 -323 l0 -296 47 -30 c26 -16 63
-51 82 -77 l35 -48 308 0 308 0 26 26 c22 22 25 31 19 70 -8 64 -59 186 -114
274 -50 82 -189 228 -264 278 -111 75 -300 152 -373 152 -24 0 -39 -7 -54 -26z
m147 -23 c245 -80 429 -230 546 -443 39 -70 86 -198 86 -233 0 -44 -8 -45
-324 -45 l-301 1 -28 40 c-15 22 -47 54 -72 71 l-45 32 0 287 c0 286 0 288 22
303 12 9 23 16 24 16 1 0 43 -13 92 -29z"/>
<path d="M13895 5216 c-102 -46 -122 -172 -40 -245 50 -43 112 -51 172 -20
136 70 97 264 -56 276 -26 2 -59 -3 -76 -11z m125 -31 c36 -19 60 -62 60 -110
0 -51 -51 -104 -106 -112 -80 -10 -150 54 -140 130 10 86 107 133 186 92z"/>
<path d="M13042 4953 c-7 -3 -19 -18 -28 -35 -14 -27 -14 -35 6 -101 89 -294
319 -527 616 -626 108 -36 142 -38 172 -11 22 21 22 25 22 325 l0 304 -29 15
c-29 16 -121 111 -121 127 0 9 -615 11 -638 2z m656 -73 c30 -33 67 -67 83
-75 l29 -16 0 -280 0 -280 -24 -24 c-14 -14 -31 -23 -38 -21 -126 40 -164 54
-223 84 -98 48 -149 85 -234 166 -120 116 -197 238 -242 386 l-22 73 27 24
c27 23 28 23 309 23 l283 0 52 -60z"/>
<path d="M14212 4915 c-17 -24 -54 -59 -81 -77 l-51 -33 0 -298 0 -298 25 -24
c31 -32 66 -32 161 0 302 101 521 316 620 609 30 88 30 111 -1 141 l-24 25
-309 0 -308 0 -32 -45z m638 12 c35 -18 32 -69 -9 -174 -104 -266 -373 -500
-638 -556 -92 -19 -88 -34 -91 301 l-2 290 50 36 c27 19 61 54 76 76 l27 40
281 0 c209 0 287 -4 306 -13z"/>
<path d="M1446 6270 c-38 -12 -132 -49 -210 -84 -77 -35 -204 -92 -281 -126
-77 -34 -146 -68 -154 -75 -16 -16 -8 -45 13 -45 8 0 97 40 198 89 388 188
513 229 631 207 80 -15 173 -109 241 -243 l26 -53 -67 -34 c-73 -36 -608 -291
-736 -349 l-78 -36 97 -193 c53 -106 98 -194 99 -196 2 -2 56 23 121 56 66 33
198 97 294 142 333 158 400 226 388 400 -9 115 -111 334 -209 443 -97 109
-221 141 -373 97z"/>
<path d="M17316 6074 c-4 -10 10 -40 34 -77 22 -34 40 -67 40 -73 0 -7 -54
-104 -120 -216 l-119 -203 -78 0 -77 0 -123 -210 -123 -210 423 -7 c232 -4
504 -7 603 -5 l182 2 -125 210 c-69 116 -198 334 -286 485 -88 151 -169 285
-180 298 -24 26 -42 28 -51 6z m227 -397 l107 -182 -62 -3 c-35 -1 -134 1
-220 5 l-157 8 33 55 c19 30 66 110 105 178 40 67 75 122 79 122 4 0 55 -82
115 -183z"/>
<path d="M2356 3902 c-12 -11 -6 -185 9 -260 19 -93 88 -238 145 -304 86 -99
219 -163 367 -176 l79 -7 95 -110 c51 -60 124 -142 161 -181 38 -39 68 -74 68
-78 0 -14 -61 -5 -93 14 -55 33 -147 60 -201 60 -62 0 -110 -21 -212 -93 -102
-71 -135 -80 -233 -63 -42 8 -85 18 -96 22 -19 7 -19 6 -5 -12 124 -154 227
-245 336 -296 133 -63 277 -37 372 66 44 48 82 116 102 183 12 38 17 42 51 48
l39 7 167 -157 c91 -86 217 -200 280 -253 l113 -97 -40 -7 c-29 -5 -56 -1 -97
13 -32 11 -90 23 -130 26 -91 7 -129 -10 -240 -111 -116 -105 -126 -109 -245
-104 l-99 5 23 -24 c88 -94 254 -202 362 -235 206 -63 382 57 430 293 12 60
14 63 51 76 22 7 44 12 50 9 5 -2 93 -66 195 -143 102 -76 259 -188 349 -249
l163 -109 -41 -12 c-26 -7 -52 -9 -70 -3 -69 20 -158 22 -214 6 -60 -18 -98
-50 -186 -159 -71 -88 -112 -108 -226 -110 -46 -1 -85 -3 -85 -4 0 -10 172
-114 244 -148 110 -51 163 -65 253 -65 82 0 133 21 196 79 67 62 117 190 117
302 0 35 3 38 44 54 43 17 46 17 73 -3 43 -30 343 -201 486 -277 95 -50 126
-70 117 -79 -7 -7 -57 -11 -133 -12 -183 -1 -206 -14 -317 -180 -72 -106 -93
-123 -180 -143 -25 -6 -62 -11 -83 -11 -57 0 -39 -15 87 -76 201 -96 364 -121
471 -70 118 54 185 179 185 341 0 82 0 83 32 103 l32 20 56 -28 c126 -64 505
-231 640 -282 l24 -9 -34 -22 c-19 -12 -65 -27 -102 -33 -90 -16 -169 -54
-203 -98 -15 -19 -43 -82 -62 -138 -19 -57 -46 -118 -60 -136 -25 -34 -99 -76
-168 -97 l-40 -13 45 -12 c197 -54 370 -65 485 -29 87 27 152 88 185 175 19
50 21 72 17 144 -3 47 -13 107 -22 133 -18 49 -18 49 7 73 l24 25 104 -40
c396 -148 924 -295 1191 -332 l87 -12 36 29 c60 48 101 113 101 161 0 91 -63
117 -530 213 -378 78 -568 126 -802 201 -119 39 -123 41 -123 68 0 25 8 32 65
60 80 40 163 119 195 186 35 74 34 182 -2 251 -50 95 -200 224 -347 298 -32
17 -51 22 -48 14 74 -171 74 -184 2 -328 -30 -60 -57 -126 -61 -147 -10 -65
20 -140 101 -252 14 -19 25 -45 25 -58 0 -21 -3 -23 -22 -18 -59 18 -318 124
-443 182 -77 35 -166 76 -197 90 -53 23 -58 28 -58 57 0 28 6 34 63 61 178 85
262 272 192 423 -45 97 -197 233 -342 306 -29 14 -55 26 -58 26 -3 0 4 -18 15
-40 11 -22 27 -64 34 -94 18 -68 12 -94 -55 -223 -42 -82 -49 -105 -49 -152 0
-66 24 -123 81 -199 23 -30 39 -61 37 -72 -3 -18 -19 -11 -143 56 -77 41 -215
121 -307 176 -199 118 -204 126 -105 173 85 41 168 126 196 199 56 151 -1 284
-182 423 -57 44 -203 133 -218 133 -4 0 6 -30 22 -67 44 -105 41 -145 -27
-280 -48 -94 -57 -120 -57 -165 0 -59 31 -130 90 -207 18 -24 31 -46 29 -49
-12 -11 -646 433 -646 452 0 6 28 26 63 43 186 92 267 268 194 426 -45 98
-200 233 -364 316 l-42 21 30 -66 c52 -114 50 -139 -20 -284 -48 -97 -61 -134
-61 -170 0 -49 34 -132 76 -187 14 -18 23 -33 20 -33 -4 0 -272 207 -428 330
-54 43 -57 47 -57 90 l0 45 59 28 c131 62 210 168 218 293 4 62 1 80 -21 128
-28 62 -100 143 -182 206 -51 39 -202 130 -217 130 -4 0 5 -26 20 -57 15 -33
28 -83 30 -116 4 -54 1 -65 -53 -172 -47 -94 -57 -124 -57 -165 0 -55 38 -145
92 -216 18 -23 30 -50 28 -59 -3 -18 -57 25 -345 270 l-70 60 -1 85 c-1 152
-51 261 -173 374 -68 63 -154 115 -259 156 -72 29 -227 70 -234 62z"/>
<path d="M16760 3898 c-303 -76 -489 -197 -579 -375 -31 -62 -53 -169 -49
-237 l3 -59 -160 -136 c-88 -75 -184 -156 -213 -180 l-53 -44 7 29 c4 16 22
48 40 72 49 65 77 129 82 189 4 49 -1 63 -59 184 l-63 132 12 53 c6 29 22 76
35 103 13 28 22 51 20 51 -2 0 -29 -13 -61 -29 -143 -73 -293 -205 -339 -299
-32 -66 -35 -143 -8 -222 24 -71 115 -165 203 -209 60 -30 62 -32 62 -71 0
-37 -4 -42 -97 -118 -82 -65 -330 -258 -383 -296 -11 -8 -10 -4 3 14 52 76 81
146 81 200 0 47 -8 71 -58 170 -53 106 -57 119 -54 170 3 34 16 79 34 117 l30
61 -61 -30 c-144 -73 -296 -203 -346 -298 -35 -67 -34 -185 3 -256 33 -63 120
-144 193 -179 34 -17 55 -34 55 -44 -1 -9 -44 -47 -98 -86 -148 -107 -535
-365 -540 -361 -2 3 15 29 38 60 23 30 50 78 61 105 32 84 26 124 -35 248 -29
60 -57 123 -60 140 -8 37 7 100 39 166 14 26 22 47 19 47 -2 0 -28 -12 -57
-26 -140 -71 -295 -207 -341 -300 -76 -153 10 -344 194 -431 92 -44 87 -53
-92 -160 -160 -96 -458 -263 -470 -263 -13 0 6 47 39 91 18 26 45 73 59 104
37 81 31 124 -41 275 l-59 123 12 56 c7 31 23 78 37 106 13 27 23 50 22 52 -2
1 -45 -23 -97 -53 -246 -144 -360 -296 -331 -442 6 -31 20 -75 32 -99 26 -54
116 -136 190 -174 48 -24 59 -34 59 -54 0 -21 -13 -31 -87 -69 -166 -83 -601
-266 -632 -266 -17 0 7 68 37 106 53 67 82 136 82 196 0 47 -9 73 -56 169 -43
87 -56 125 -56 159 0 43 32 140 54 168 22 26 -2 22 -58 -9 -168 -93 -296 -208
-340 -304 -23 -50 -26 -67 -22 -129 8 -124 85 -229 217 -296 59 -29 62 -33 59
-63 -3 -32 -3 -32 -143 -75 -217 -67 -413 -116 -750 -187 -381 -80 -493 -113
-529 -156 -47 -55 -26 -130 58 -207 51 -47 57 -48 182 -27 288 49 779 188
1150 325 l108 40 23 -22 22 -23 -20 -65 c-26 -82 -28 -187 -5 -257 23 -70 91
-144 158 -173 101 -44 322 -37 498 16 l55 16 -61 23 c-126 47 -153 78 -204
230 -15 48 -40 104 -54 125 -32 48 -109 87 -208 104 -74 13 -136 42 -121 56 4
4 76 36 160 70 84 35 241 104 350 155 l198 91 34 -20 c32 -19 33 -21 28 -67
-8 -67 9 -172 37 -228 37 -73 71 -107 138 -140 53 -27 72 -31 142 -31 122 0
281 52 426 138 l45 27 -60 6 c-80 8 -137 25 -168 49 -14 11 -50 57 -80 103
-106 162 -138 180 -312 182 -66 1 -128 5 -138 9 -14 7 26 32 175 113 106 58
254 141 328 185 l135 80 41 -20 41 -20 5 -74 c10 -143 84 -263 193 -314 123
-58 312 -13 516 122 99 66 100 69 12 71 -106 2 -153 22 -210 91 -149 179 -205
208 -358 181 -77 -13 -129 -13 -153 0 -12 7 24 35 153 121 93 62 252 176 354
252 l185 140 43 -13 c34 -9 44 -17 49 -38 27 -132 55 -194 112 -255 54 -56
143 -96 215 -96 72 0 161 29 250 81 60 36 95 63 217 167 l34 29 -100 -5 c-124
-6 -138 0 -255 107 -105 95 -152 116 -242 108 -34 -3 -89 -15 -123 -27 -45
-15 -70 -18 -98 -13 l-38 8 133 115 c74 63 197 177 275 253 89 86 149 137 162
137 45 0 68 -17 81 -62 33 -108 108 -200 200 -245 46 -23 69 -28 132 -28 67 0
83 4 152 38 54 27 102 62 163 120 82 77 169 176 161 183 -1 2 -23 -3 -48 -10
-44 -13 -106 -20 -161 -17 -14 0 -75 34 -137 76 -62 41 -128 77 -147 81 -63
12 -142 -3 -221 -40 -41 -20 -88 -36 -104 -36 -29 0 -26 5 72 112 56 61 131
147 167 190 l65 78 51 0 c246 1 464 186 530 450 19 75 33 285 20 292 -5 3 -25
1 -44 -4z"/>
<path d="M10920 1075 c-69 -30 -188 -80 -265 -112 -127 -53 -140 -61 -140 -83
0 -22 4 -25 30 -22 17 2 50 15 73 29 24 14 48 21 52 17 4 -5 32 -186 63 -402
30 -216 57 -395 59 -398 4 -4 348 41 396 51 16 4 22 11 18 23 -11 34 -146 908
-146 943 0 14 -6 12 -140 -46z"/>
<path d="M8415 1050 c-77 -10 -207 -25 -290 -35 -82 -9 -154 -21 -159 -25 -5
-5 -6 -16 -2 -26 6 -15 16 -16 86 -10 69 6 80 4 80 -10 0 -13 -43 -284 -114
-716 l-13 -76 86 -12 c47 -7 141 -20 208 -29 l123 -18 5 31 c2 17 21 144 40
281 38 264 91 600 101 641 3 13 2 23 -2 23 -5 -1 -72 -9 -149 -19z"/>
<path d="M9945 1029 c-315 -46 -455 -309 -279 -525 25 -31 44 -57 42 -58 -100
-74 -122 -111 -116 -198 6 -85 43 -132 138 -181 239 -121 580 -35 687 172 28
53 33 73 33 132 0 109 -38 178 -135 244 l-53 37 34 31 c48 41 64 77 64 140 0
111 -84 185 -235 207 -80 11 -97 11 -180 -1z m237 -64 c92 -32 139 -107 118
-186 -11 -40 -69 -99 -98 -99 -9 0 -74 23 -143 50 -280 113 -330 198 -144 247
64 16 205 10 267 -12z m-212 -658 c214 -107 252 -136 231 -174 -5 -11 -34 -31
-63 -44 -46 -21 -68 -24 -168 -23 -95 0 -125 4 -174 23 -157 62 -202 190 -99
280 25 23 51 41 57 40 6 0 103 -46 216 -102z"/>
<path d="M8991 1014 c-81 -22 -147 -62 -206 -126 -190 -205 -92 -518 162 -518
69 0 130 20 139 45 11 27 -4 29 -74 11 -60 -15 -72 -15 -114 -3 -66 21 -100
48 -132 107 -26 47 -28 59 -24 125 11 167 134 296 311 325 103 16 101 19 94
-144 -15 -326 -39 -752 -43 -765 -3 -10 -20 -12 -67 -9 -86 5 -147 37 -192 99
-27 38 -41 50 -58 47 -37 -5 -33 -42 9 -88 165 -183 524 -123 686 115 66 98
91 182 91 303 -1 160 -36 259 -124 357 -105 114 -293 164 -458 119z"/>
</g>
</svg>
